# xmcd CD database file
#
# Track frame offsets:
#	150
#	26331
#	51443
#	66458
#	88833
#	120201
#	141879
#	177859
#	209526
#
# Disc length: 3056 seconds
#
# Revision: 0
# Processed by: cddbd v1.5.1PL0 Copyright (c) Steve Scherf et al.
# Submitted via: CDex 1.51
#
DISCID=800bee09
DTITLE=Sai Ghose Trio - Fingers and Toes
DYEAR=1900
DGENRE=Jazz
TTITLE0=The Changing Table
TTITLE1=You Don't Know What Love Is
TTITLE2=Sippin' Bailey
TTITLE3=Baby Steps
TTITLE4=Lifeforce
TTITLE5=Super Saucer
TTITLE6=Green Dolphin Street
TTITLE7=Fingers And Toes
TTITLE8=A Father's Hymn
EXTD=
EXTT0=
EXTT1=
EXTT2=
EXTT3=
EXTT4=
EXTT5=
EXTT6=
EXTT7=
EXTT8=
PLAYORDER=
